<?xml version="1.0" standalone="no"?>
<!DOCTYPE svg PUBLIC "-//W3C//DTD SVG 20010904//EN"
 "http://www.w3.org/TR/2001/REC-SVG-20010904/DTD/svg10.dtd">
<svg version="1.0" xmlns="http://www.w3.org/2000/svg"
 width="700.000000pt" height="700.000000pt" viewBox="0 0 700.000000 700.000000"
 preserveAspectRatio="xMidYMid meet">
<metadata>
Created by potrace 1.14, written by Peter Selinger 2001-2017
</metadata>
<g transform="translate(0.000000,700.000000) scale(0.100000,-0.100000)"
fill="#000000" stroke="none">
<path d="M2380 6562 c-20 -3 -1076 -420 -1145 -452 -11 -5 -101 -41 -200 -80
-99 -39 -193 -77 -210 -84 -16 -7 -179 -73 -361 -145 -183 -73 -350 -144 -372
-158 -22 -15 -51 -45 -64 -67 l-23 -41 -3 -2440 c-2 -1779 0 -2454 8 -2492 20
-93 108 -161 213 -165 23 -1 223 74 618 231 321 128 598 239 614 246 17 7 140
56 275 109 135 53 255 101 268 106 12 6 32 14 45 20 12 5 99 40 193 77 l170
69 220 -89 c120 -48 226 -91 234 -94 8 -3 269 -107 580 -230 311 -124 579
-231 595 -238 17 -7 140 -57 275 -110 170 -68 257 -97 285 -97 29 0 357 127
1173 453 1185 474 1168 466 1210 543 16 29 17 210 19 2496 l3 2465 -28 50
c-38 68 -93 105 -169 112 -59 5 -67 3 -419 -137 -198 -78 -372 -149 -389 -156
-16 -7 -298 -119 -625 -249 -327 -130 -613 -245 -635 -255 -22 -10 -63 -26
-92 -36 l-51 -18 -624 248 c-342 137 -636 255 -653 262 -16 7 -77 31 -135 54
-58 22 -114 45 -125 49 -11 5 -40 17 -65 26 -25 9 -58 23 -75 30 -16 7 -61 25
-100 40 -38 15 -95 37 -125 50 -189 80 -265 104 -310 97z m-84 -2674 l1 -2166
-926 -369 c-509 -204 -928 -368 -930 -367 -9 8 -4 4325 5 4334 5 4 254 106
554 225 300 119 559 223 575 230 17 7 174 70 350 139 176 70 327 131 335 136
8 5 20 8 25 6 7 -2 10 -734 11 -2168z m754 1962 c278 -111 573 -229 655 -262
626 -248 761 -302 770 -310 10 -9 15 -4338 6 -4338 -6 0 -425 166 -456 180
-11 5 -101 41 -200 80 -99 39 -189 75 -200 80 -11 5 -101 41 -200 80 -99 39
-189 75 -200 80 -11 5 -168 68 -348 140 -181 71 -336 134 -345 139 -16 9 -17
163 -18 2168 0 1187 2 2162 4 2166 2 5 9 6 16 4 6 -3 238 -96 516 -207z m3513
-2000 c0 -1282 -4 -2164 -9 -2170 -5 -5 -191 -81 -414 -170 -223 -88 -414
-165 -425 -170 -28 -13 -1002 -400 -1007 -400 -3 0 -5 976 -5 2169 l0 2168
926 370 c509 203 928 368 930 366 2 -1 4 -975 4 -2163z"/>
</g>
</svg>
